<svg id="logo" xmlns="http://www.w3.org/2000/svg" xmlns:xlink="http://www.w3.org/1999/xlink" width="500" height="50.189" viewBox="0 0 500 50.189">
  <defs>
    <style>
      .cls-1 {
        fill: url(#linear-gradient);
      }

      .cls-2 {
        fill: url(#linear-gradient-3);
      }

      .cls-3 {
        fill: url(#linear-gradient-5);
      }

      .cls-4 {
        fill: #04060f;
      }

      .cls-5 {
        fill: #be0000;
      }
    </style>
    <linearGradient id="linear-gradient" x1="-0.038" y1="-0.824" x2="0.773" y2="-3.466" gradientUnits="objectBoundingBox">
      <stop offset="0" stop-color="#3c2680"/>
      <stop offset="0.519" stop-color="#008081"/>
      <stop offset="1" stop-color="#00806c"/>
    </linearGradient>
    <linearGradient id="linear-gradient-3" x1="0.337" y1="0.86" x2="1.838" y2="0.142" xlink:href="#linear-gradient"/>
    <linearGradient id="linear-gradient-5" x1="-0.353" y1="1.162" x2="1.148" y2="0.443" xlink:href="#linear-gradient"/>
  </defs>
  <path id="Path_2" data-name="Path 2" class="cls-1" d="M42.96,149.943H12.036a1.839,1.839,0,0,1-.933-3.427l8.489-5.012a1.717,1.717,0,0,1,1.8.023l5.247,3.4a1.749,1.749,0,0,0,1.842,0l5.224-3.38a1.759,1.759,0,0,1,1.819-.023l8.4,4.989A1.85,1.85,0,0,1,42.96,149.943Z" transform="translate(-7.821 -108.332)"/>
  <path id="Path_27" data-name="Path 27" class="cls-1" d="M42.96,149.943H12.036a1.839,1.839,0,0,1-.933-3.427l8.489-5.012a1.717,1.717,0,0,1,1.8.023l5.247,3.4a1.749,1.749,0,0,0,1.842,0l5.224-3.38a1.759,1.759,0,0,1,1.819-.023l8.4,4.989A1.85,1.85,0,0,1,42.96,149.943Z" transform="translate(-7.821 -108.332)"/>
  <path id="Path_3" data-name="Path 3" class="cls-2" d="M18.7,21.728v-.093a1.455,1.455,0,0,0-2.729-.723L.627,49.1l-.443.886a1.455,1.455,0,0,0,2.1,1.865l8.559-5.2a1.406,1.406,0,0,0,.653-1.212l.023-7.063a1.409,1.409,0,0,1,.7-1.236l5.76-3.427a1.459,1.459,0,0,0,.7-1.236Z" transform="translate(-0.026 -15.457)"/>
  <path id="Path_28" data-name="Path 28" class="cls-2" d="M18.7,21.728v-.093a1.455,1.455,0,0,0-2.729-.723L.627,49.1l-.443.886a1.455,1.455,0,0,0,2.1,1.865l8.559-5.2a1.406,1.406,0,0,0,.653-1.212l.023-7.063a1.409,1.409,0,0,1,.7-1.236l5.76-3.427a1.459,1.459,0,0,0,.7-1.236Z" transform="translate(-0.026 -15.457)"/>
  <path id="Path_4" data-name="Path 4" class="cls-3" d="M89.1,21.728v-.093a1.455,1.455,0,0,1,2.729-.723L107.173,49.1l.443.886a1.455,1.455,0,0,1-2.1,1.865l-8.559-5.2a1.406,1.406,0,0,1-.653-1.212l-.023-7.063a1.409,1.409,0,0,0-.7-1.236l-5.76-3.427a1.459,1.459,0,0,1-.7-1.236Z" transform="translate(-68.326 -15.457)"/>
  <path id="Path_26" data-name="Path 26" class="cls-3" d="M89.1,21.728v-.093a1.455,1.455,0,0,1,2.729-.723L107.173,49.1l.443.886a1.455,1.455,0,0,1-2.1,1.865l-8.559-5.2a1.406,1.406,0,0,1-.653-1.212l-.023-7.063a1.409,1.409,0,0,0-.7-1.236l-5.76-3.427a1.459,1.459,0,0,1-.7-1.236Z" transform="translate(-68.326 -15.457)"/>
  <path id="Path_5" data-name="Path 5" class="cls-4" d="M576.036,77.613a1.457,1.457,0,0,1-1.469,1.352H555.373l.28.816a6.384,6.384,0,0,0,1.073,2.145,7.171,7.171,0,0,0,4.128,2.891,11.819,11.819,0,0,0,3.008.42,8.672,8.672,0,0,0,4.454-1.189,9.961,9.961,0,0,0,1.4-1.049c.093-.093.21-.163.3-.256l4.478,2.588a11.4,11.4,0,0,1-1.959,2.028,13.021,13.021,0,0,1-7.859,2.867c-.35.023-.7.023-1.049.023a14.356,14.356,0,0,1-7.836-2.075,12.6,12.6,0,0,1-6.064-10.653,13.153,13.153,0,0,1,3.918-10.513,12.966,12.966,0,0,1,9.422-3.707,8.99,8.99,0,0,1,1.119.047c6.483.4,11.357,5.362,11.871,12.075a16.149,16.149,0,0,1-.023,2.191Zm-12.85-9.371c-3.241,0-6.81,1.818-7.486,5.874l-.117.723h14.926l-.093-.7a6.967,6.967,0,0,0-6.88-5.9Z" transform="translate(-421.516 -48.544)"/>
  <path id="Path_6" data-name="Path 6" class="cls-4" d="M205.988,90.248a17.575,17.575,0,0,1-2.4-.163,10.978,10.978,0,0,1-6.063-2.611,9.565,9.565,0,0,1-2.122-2.7l4.874-2.727a5.511,5.511,0,0,0,4.991,3.17c.3.023.56.023.793.023A7.523,7.523,0,0,0,208.017,85h.023l.023-.023a2.676,2.676,0,0,0,2.029-2.471,2.313,2.313,0,0,0-1.493-2.331,23.949,23.949,0,0,0-2.775-1.049c-.42-.14-.84-.256-1.259-.373a22.724,22.724,0,0,1-4.571-1.678,6.134,6.134,0,0,1-3.4-3.893,7.216,7.216,0,0,1,3.661-8.555,11.72,11.72,0,0,1,5.574-1.329,10.953,10.953,0,0,1,8.326,3.543c.326.373.606.769.933,1.212.023.023.047.047.047.07L210.4,70.69c-.14-.21-.28-.42-.443-.629a5.3,5.3,0,0,0-4.1-1.912,5.145,5.145,0,0,0-2.146.466,2.494,2.494,0,0,0-1.539,2.168,2.249,2.249,0,0,0,1.4,2.285A28.12,28.12,0,0,0,206.9,74.28l.91.28a22.58,22.58,0,0,1,4.361,1.585,6.432,6.432,0,0,1,3.755,6.247,6.808,6.808,0,0,1-3.895,6.411,12.187,12.187,0,0,1-6.04,1.445Z" transform="translate(-149.837 -48.544)"/>
  <path id="Path_25" data-name="Path 25" class="cls-4" d="M205.988,90.248a17.575,17.575,0,0,1-2.4-.163,10.978,10.978,0,0,1-6.063-2.611,9.565,9.565,0,0,1-2.122-2.7l4.874-2.727a5.511,5.511,0,0,0,4.991,3.17c.3.023.56.023.793.023A7.523,7.523,0,0,0,208.017,85h.023l.023-.023a2.676,2.676,0,0,0,2.029-2.471,2.313,2.313,0,0,0-1.493-2.331,23.949,23.949,0,0,0-2.775-1.049c-.42-.14-.84-.256-1.259-.373a22.724,22.724,0,0,1-4.571-1.678,6.134,6.134,0,0,1-3.4-3.893,7.216,7.216,0,0,1,3.661-8.555,11.72,11.72,0,0,1,5.574-1.329,10.953,10.953,0,0,1,8.326,3.543c.326.373.606.769.933,1.212.023.023.047.047.047.07L210.4,70.69c-.14-.21-.28-.42-.443-.629a5.3,5.3,0,0,0-4.1-1.912,5.145,5.145,0,0,0-2.146.466,2.494,2.494,0,0,0-1.539,2.168,2.249,2.249,0,0,0,1.4,2.285A28.12,28.12,0,0,0,206.9,74.28l.91.28a22.58,22.58,0,0,1,4.361,1.585,6.432,6.432,0,0,1,3.755,6.247,6.808,6.808,0,0,1-3.895,6.411,12.187,12.187,0,0,1-6.04,1.445Z" transform="translate(-149.837 -48.544)"/>
  <path id="Path_7" data-name="Path 7" class="cls-4" d="M441.72,65.9V91.473H436.1V65.9Z" transform="translate(-334.403 -50.538)"/>
  <path id="Path_23" data-name="Path 23" class="cls-4" d="M441.72,65.9V91.473H436.1V65.9Z" transform="translate(-334.403 -50.538)"/>
  <path id="Path_8" data-name="Path 8" class="cls-4" d="M306.937,66.89a11.278,11.278,0,0,1,8.022-3.59h.4a12.124,12.124,0,0,1,11.451,7.9,14.087,14.087,0,0,1-1.726,14.15,12.009,12.009,0,0,1-9.7,4.919,11.373,11.373,0,0,1-4.571-.932,8.331,8.331,0,0,1-2.985-2.145c-.07-.07-.28-.28-.49-.513l-1.213-1.236V98.733H300.5V65.421a1.533,1.533,0,0,1,1.516-1.539H306.1v3.8Zm7.206,1.725a7.827,7.827,0,0,0-7.929,8.019,8.234,8.234,0,0,0,2.146,5.874,8.085,8.085,0,0,0,5.737,2.4h.187a7.812,7.812,0,0,0,7.976-7.972,7.827,7.827,0,0,0-7.976-8.322Z" transform="translate(-230.426 -48.544)"/>
  <path id="Path_24" data-name="Path 24" class="cls-4" d="M306.937,66.89a11.278,11.278,0,0,1,8.022-3.59h.4a12.124,12.124,0,0,1,11.451,7.9,14.087,14.087,0,0,1-1.726,14.15,12.009,12.009,0,0,1-9.7,4.919,11.373,11.373,0,0,1-4.571-.932,8.331,8.331,0,0,1-2.985-2.145c-.07-.07-.28-.28-.49-.513l-1.213-1.236V98.733H300.5V65.421a1.533,1.533,0,0,1,1.516-1.539H306.1v3.8Zm7.206,1.725a7.827,7.827,0,0,0-7.929,8.019,8.234,8.234,0,0,0,2.146,5.874,8.085,8.085,0,0,0,5.737,2.4h.187a7.812,7.812,0,0,0,7.976-7.972,7.827,7.827,0,0,0-7.976-8.322Z" transform="translate(-230.426 -48.544)"/>
  <ellipse id="Ellipse_1" data-name="Ellipse 1" class="cls-5" cx="2.775" cy="2.774" rx="2.775" ry="2.774" transform="translate(101.697 4.825)"/>
  <ellipse id="Ellipse_4" data-name="Ellipse 4" class="cls-5" cx="2.775" cy="2.774" rx="2.775" ry="2.774" transform="translate(101.697 4.825)"/>
  <g id="Group_1" data-name="Group 1" transform="translate(111.749)">
    <path id="Path_9" data-name="Path 9" class="cls-4" d="M484.82,68.576V64.52H479.2V90.092h4.081a1.518,1.518,0,0,0,1.516-1.539V78.926c.023-.35.023-.653.023-.909A7.8,7.8,0,0,1,485.94,73.7a6.92,6.92,0,0,1,5.2-3.077,13.021,13.021,0,0,1,1.632-.093h.117a18.47,18.47,0,0,1,4.384-6.294c-1.329-.117-2.309-.14-2.938-.14-.513,0-.793.023-.793.023h-.023a10.364,10.364,0,0,0-8.745,5.385Z" transform="translate(-479.2 -49.157)"/>
    <path id="Path_10" data-name="Path 10" class="cls-4" d="M713.5,0h3.265V50.189H713.5Z" transform="translate(-658.858)"/>
    <path id="Path_11" data-name="Path 11" class="cls-4" d="M786.629,66.905A7.914,7.914,0,0,1,791.41,65.6c3.825,0,6.3,1.445,7.533,4.429l.3.769.4-.723a8.532,8.532,0,0,1,3.265-3.4,10.893,10.893,0,0,1,8.792-.28,7.014,7.014,0,0,1,2.659,2.191,9.348,9.348,0,0,1,1.493,3.31,18.094,18.094,0,0,1,.466,4.149V89.075a1.612,1.612,0,0,1-1.609,1.608H810.79V76.766a12.485,12.485,0,0,0-.21-2.308,5.589,5.589,0,0,0-.793-2.028,4.173,4.173,0,0,0-1.562-1.422,5.283,5.283,0,0,0-2.5-.513,5.561,5.561,0,0,0-2.682.606,5.215,5.215,0,0,0-1.819,1.585,6.282,6.282,0,0,0-1,2.238,10,10,0,0,0-.3,2.494V90.706h-5.5V76.067a6.621,6.621,0,0,0-1.073-3.986,4.236,4.236,0,0,0-3.638-1.562,6.587,6.587,0,0,0-2.845.559,5.257,5.257,0,0,0-1.936,1.539,5.71,5.71,0,0,0-1.1,2.191,9.933,9.933,0,0,0-.326,2.518V90.706H778V66.229h5.2v3.94a11.924,11.924,0,0,1,3.428-3.264Z" transform="translate(-708.316 -50.308)"/>
    <path id="Path_12" data-name="Path 12" class="cls-4" d="M1342.676,66.905a7.913,7.913,0,0,1,4.781-1.305c3.825,0,6.274,1.445,7.533,4.429l.3.769.4-.723a8.532,8.532,0,0,1,3.265-3.4,10.893,10.893,0,0,1,8.792-.28,7.012,7.012,0,0,1,2.658,2.191,9.347,9.347,0,0,1,1.493,3.31,18.088,18.088,0,0,1,.466,4.149V89.075a1.612,1.612,0,0,1-1.609,1.608h-3.918V76.766a12.5,12.5,0,0,0-.21-2.308,5.6,5.6,0,0,0-.793-2.028,4.176,4.176,0,0,0-1.562-1.422,5.284,5.284,0,0,0-2.5-.513,5.562,5.562,0,0,0-2.682.606,5.215,5.215,0,0,0-1.819,1.585,6.284,6.284,0,0,0-1,2.238,10.008,10.008,0,0,0-.3,2.494V90.706h-5.5V76.067a6.786,6.786,0,0,0-1.073-3.986,4.207,4.207,0,0,0-3.638-1.562,6.586,6.586,0,0,0-2.845.559,5.257,5.257,0,0,0-1.936,1.539,5.71,5.71,0,0,0-1.1,2.191,9.941,9.941,0,0,0-.326,2.518V90.706H1334V66.229h5.2v3.94a13.517,13.517,0,0,1,3.475-3.264Z" transform="translate(-1134.651 -50.308)"/>
    <path id="Path_13" data-name="Path 13" class="cls-4" d="M970.47,87.6a11.4,11.4,0,0,1-7.742.466,8.794,8.794,0,0,1-2.822-1.352,6.938,6.938,0,0,1-1.959-2.238,6.379,6.379,0,0,1-.746-3.124,7.094,7.094,0,0,1,.7-3.31,6.876,6.876,0,0,1,1.866-2.285,9.451,9.451,0,0,1,2.752-1.492,21.161,21.161,0,0,1,3.335-.863c1.166-.186,2.332-.3,3.5-.373q1.784-.07,3.358-.07h1.982v-1.1A4.5,4.5,0,0,0,972.9,68a7.355,7.355,0,0,0-4.408-1.259,10.341,10.341,0,0,0-3.895.746,10.54,10.54,0,0,0-2.845,1.725L959,66.46a11.841,11.841,0,0,1,4.478-2.727,17.972,17.972,0,0,1,5.69-.932,14.222,14.222,0,0,1,4.408.583,9.634,9.634,0,0,1,2.938,1.492,6.986,6.986,0,0,1,1.772,2.051,10.1,10.1,0,0,1,.91,2.4,12.393,12.393,0,0,1,.327,2.378c.023.769.047,1.469.047,2.051V87.883h-4.874V84.41c-.023.023-2.822,2.657-4.221,3.194Zm2.1-11c-.886,0-1.865.047-2.985.093a16.448,16.448,0,0,0-3.148.513,7.22,7.22,0,0,0-2.589,1.235,2.933,2.933,0,0,0-1.166,2.448,3.121,3.121,0,0,0,.467,1.725,3.811,3.811,0,0,0,1.143,1.142,4.445,4.445,0,0,0,1.563.653,6.871,6.871,0,0,0,1.679.187,6.949,6.949,0,0,0,5.107-1.678,6.216,6.216,0,0,0,1.679-4.522V76.6Z" transform="translate(-845.725 -48.16)"/>
    <path id="Path_14" data-name="Path 14" class="cls-4" d="M1081.212,66.742a7.9,7.9,0,0,1,4.268-1.142,5.172,5.172,0,0,1,1.049.093c.256.047.536.117.793.186v5.268a9.651,9.651,0,0,0-1.073-.21,9.259,9.259,0,0,0-1.563-.14,7.158,7.158,0,0,0-3.755.886,6.919,6.919,0,0,0-2.169,1.981,6.776,6.776,0,0,0-1,2.238,8.637,8.637,0,0,0-.257,1.678V90.706H1072V66.229h5.5v4.01A23.451,23.451,0,0,1,1081.212,66.742Z" transform="translate(-933.752 -50.308)"/>
    <path id="Path_15" data-name="Path 15" class="cls-4" d="M1208.27,66.6a12.731,12.731,0,0,1-4.011-.536A5.054,5.054,0,0,1,1201.9,64.5a6.094,6.094,0,0,1-1.189-2.634,20.5,20.5,0,0,1-.327-3.823V46.089H1195.7V41.52h4.688V35.808A1.612,1.612,0,0,1,1202,34.2h3.918v7.32h6.95v4.569h-6.95V57.535a5.915,5.915,0,0,0,.77,3.217c.559.863,1.609,1.282,3.148,1.282a11.507,11.507,0,0,0,1.912-.186,4.661,4.661,0,0,0,1.1-.326V65.9a8.136,8.136,0,0,1-2.1.513,20,20,0,0,1-2.472.186Z" transform="translate(-1028.604 -26.227)"/>
    <path id="Path_16" data-name="Path 16" class="cls-4" d="M1541.454,76.92a1.457,1.457,0,0,1-1.469,1.352h-19.007l.28.793a6.439,6.439,0,0,0,1.049,2.121,7.081,7.081,0,0,0,4.1,2.867,11.648,11.648,0,0,0,2.985.42,8.505,8.505,0,0,0,4.408-1.189,11.974,11.974,0,0,0,1.4-1.026c.093-.093.21-.163.3-.256l4.431,2.541a11.175,11.175,0,0,1-1.936,2,12.766,12.766,0,0,1-7.766,2.821c-.35.023-.7.023-1.05.023a14.116,14.116,0,0,1-7.766-2.075,12.429,12.429,0,0,1-5.993-10.56,13.03,13.03,0,0,1,3.871-10.42A12.827,12.827,0,0,1,1528.6,62.7a9,9,0,0,1,1.12.047,12.518,12.518,0,0,1,11.754,11.935,17.2,17.2,0,0,1-.023,2.238Zm-12.733-9.278c-3.218,0-6.763,1.795-7.416,5.828l-.117.723h14.763l-.094-.7a6.87,6.87,0,0,0-6.81-5.828A1.542,1.542,0,0,0,1528.721,67.642Z" transform="translate(-1273.751 -48.084)"/>
    <path id="Path_17" data-name="Path 17" class="cls-4" d="M1160.55,65.5V90.816H1155V65.5Z" transform="translate(-997.396 -50.231)"/>
    <ellipse id="Ellipse_2" data-name="Ellipse 2" class="cls-4" cx="2.752" cy="2.751" rx="2.752" ry="2.751" transform="translate(157.604 4.825)"/>
    <path id="Path_18" data-name="Path 18" class="cls-4" d="M1294.374,65.5V90.816H1288.8V65.5Z" transform="translate(-1099.992 -50.231)"/>
    <ellipse id="Ellipse_3" data-name="Ellipse 3" class="cls-4" cx="2.752" cy="2.751" rx="2.752" ry="2.751" transform="translate(188.808 4.825)"/>
  </g>
  <g id="Group_4" data-name="Group 4" transform="translate(393.632 1.585)">
    <g id="Group_2" data-name="Group 2">
      <path id="Path_19" data-name="Path 19" class="cls-5" d="M1704.854,45.544A11.68,11.68,0,0,1,1700,46.569a12.07,12.07,0,0,1-5.084-1,11.388,11.388,0,0,1-6.2-6.807,15.722,15.722,0,0,1-.816-5.105,14.99,14.99,0,0,1,.863-5.082,13.09,13.09,0,0,1,2.425-4.1,11.057,11.057,0,0,1,3.755-2.727,11.658,11.658,0,0,1,4.8-1,11.969,11.969,0,0,1,3.055.35s2.379.443,6.11,3.5V6.8h3.918a1.612,1.612,0,0,1,1.609,1.608V45.917h-5.224v-3.8C1708.189,43.842,1704.854,45.544,1704.854,45.544Zm-3.592-19.908a7.82,7.82,0,0,0-3.288.676,7.971,7.971,0,0,0-2.472,1.772,7.814,7.814,0,0,0-1.562,2.564,8.566,8.566,0,0,0,0,5.968,7.814,7.814,0,0,0,1.562,2.564,7.609,7.609,0,0,0,2.472,1.772,8.335,8.335,0,0,0,6.577,0,7.97,7.97,0,0,0,2.472-1.772,7.586,7.586,0,0,0,1.563-2.564,8.568,8.568,0,0,0,0-5.968,7.819,7.819,0,0,0-1.563-2.564,7.671,7.671,0,0,0-2.472-1.795A8.11,8.11,0,0,0,1701.263,25.636Z" transform="translate(-1687.9 -6.8)"/>
    </g>
    <g id="Group_3" data-name="Group 3" transform="translate(30.527 14.173)">
      <path id="Path_20" data-name="Path 20" class="cls-5" d="M1832.116,93.266a14.922,14.922,0,0,1-5.224-.909,12.48,12.48,0,0,1-4.221-2.588,11.964,11.964,0,0,1-2.822-4.056,12.879,12.879,0,0,1-1.05-5.268,13.07,13.07,0,0,1,1.05-5.292,12.914,12.914,0,0,1,2.822-4.056,12.565,12.565,0,0,1,4.221-2.588,15.463,15.463,0,0,1,10.448,0,12.476,12.476,0,0,1,4.221,2.588,11.961,11.961,0,0,1,2.822,4.056,13.806,13.806,0,0,1,0,10.56,12.649,12.649,0,0,1-2.822,4.056,12.334,12.334,0,0,1-4.221,2.588A14.825,14.825,0,0,1,1832.116,93.266Zm0-20.817a7.713,7.713,0,0,0-3.265.676,7.608,7.608,0,0,0-2.472,1.772,7.718,7.718,0,0,0-1.562,2.541,8.64,8.64,0,0,0-.513,2.984,9.223,9.223,0,0,0,.513,2.984,7.138,7.138,0,0,0,1.563,2.541,7.608,7.608,0,0,0,2.472,1.772,8.223,8.223,0,0,0,6.53,0,7.973,7.973,0,0,0,2.472-1.772,7.718,7.718,0,0,0,1.563-2.541,8.64,8.64,0,0,0,.513-2.984,9.223,9.223,0,0,0-.513-2.984,7.138,7.138,0,0,0-1.562-2.541,7.689,7.689,0,0,0-5.737-2.448Z" transform="translate(-1818.8 -67.6)"/>
    </g>
    <path id="Path_21" data-name="Path 21" class="cls-5" d="M2067.448,89.568a17.243,17.243,0,0,1-2.378-.163,10.6,10.6,0,0,1-5.97-2.588,9.382,9.382,0,0,1-2.1-2.681l4.8-2.7a5.392,5.392,0,0,0,4.921,3.124c.3.023.56.023.793.023a7.528,7.528,0,0,0,1.959-.233h.047a2.643,2.643,0,0,0,2.005-2.424,2.313,2.313,0,0,0-1.469-2.308,23.3,23.3,0,0,0-2.729-1.049c-.42-.117-.84-.256-1.236-.373a22.3,22.3,0,0,1-4.524-1.678,6.146,6.146,0,0,1-3.382-3.846,7.175,7.175,0,0,1,3.615-8.462,11.7,11.7,0,0,1,5.5-1.305,10.758,10.758,0,0,1,8.232,3.5c.327.373.607.769.91,1.189.023.023.047.047.047.07l-4.711,2.564a5.792,5.792,0,0,0-.443-.606,5.213,5.213,0,0,0-4.035-1.888,5.038,5.038,0,0,0-2.122.466,2.475,2.475,0,0,0-1.516,2.121,2.184,2.184,0,0,0,1.376,2.238,27.276,27.276,0,0,0,3.289,1.189l.909.28a23.691,23.691,0,0,1,4.314,1.562,6.386,6.386,0,0,1,3.732,6.178,6.79,6.79,0,0,1-3.848,6.341,11.837,11.837,0,0,1-5.993,1.469Z" transform="translate(-1970.921 -49.822)"/>
    <path id="Path_22" data-name="Path 22" class="cls-5" d="M1960.92,90.949a15.49,15.49,0,0,1-5.341-.932,12.432,12.432,0,0,1-7.206-6.807,13.454,13.454,0,0,1-1.073-5.385,13.065,13.065,0,0,1,1.073-5.385,12.531,12.531,0,0,1,2.892-4.149,12.915,12.915,0,0,1,4.314-2.657,14.961,14.961,0,0,1,5.341-.932,13.706,13.706,0,0,1,4.827.909,10.928,10.928,0,0,1,3.941,2.588l-3.895,3.893a10.713,10.713,0,0,0-2.169-1.655,5.594,5.594,0,0,0-2.729-.746,8.042,8.042,0,0,0-3.335.676,7.933,7.933,0,0,0-2.518,1.818,7.48,7.48,0,0,0-1.586,2.611,8.958,8.958,0,0,0,0,6.108,7.48,7.48,0,0,0,1.586,2.611,8.309,8.309,0,0,0,2.518,1.818,8.042,8.042,0,0,0,3.335.676,6.641,6.641,0,0,0,2.961-.653,6.872,6.872,0,0,0,2.052-1.539l3.708,3.986a9.793,9.793,0,0,1-1.843,1.329,15.623,15.623,0,0,1-2.5,1.1,14.519,14.519,0,0,1-2.4.606A12.442,12.442,0,0,1,1960.92,90.949Z" transform="translate(-1886.805 -51.203)"/>
  </g>
</svg>
