<svg id="marker" xmlns="http://www.w3.org/2000/svg" width="40" height="65.258" viewBox="0 0 40 65.258">
  <defs>
    <style>
      .cls-1 {
        fill: #d1d1d1;
      }

      .cls-1, .cls-2 {
        stroke-linecap: round;
      }

      .cls-2 {
        fill: #91d1e3;
      }

      .cls-3 {
        fill-rule: evenodd;
      }

      .cls-4, .cls-5 {
        stroke: none;
      }

      .cls-5 {
        fill: #999;
      }
    </style>
  </defs>
  <g id="Path_29" data-name="Path 29" class="cls-1">
    <path class="cls-4" d="M 20.00000381469727 64.26784515380859 C 18.68140602111816 62.00150299072266 14.5398998260498 54.79326248168945 10.44355964660645 46.72140121459961 C 3.938430070877075 33.90298080444336 0.5 24.75142097473145 0.5 20.25606155395508 C 0.5 17.5880012512207 1.015799999237061 15.00008106231689 2.033080101013184 12.56417083740234 C 3.015589952468872 10.21152114868164 4.422140121459961 8.098620414733887 6.213659763336182 6.284160614013672 C 8.00475025177002 4.470150470733643 10.09016036987305 3.046050786972046 12.41197967529297 2.051430702209473 C 14.815110206604 1.0219806432724 17.36808967590332 0.5000007152557373 20 0.5000007152557373 C 22.63191032409668 0.5000007152557373 25.18489074707031 1.0219806432724 27.58802032470703 2.051430702209473 C 29.90983963012695 3.046050786972046 31.9952507019043 4.470150470733643 33.78633880615234 6.284160614013672 C 35.57786178588867 8.098620414733887 36.98440933227539 10.21152114868164 37.9669189453125 12.56417083740234 C 38.98419952392578 15.00008106231689 39.5 17.5880012512207 39.5 20.25606155395508 C 39.5 24.75197982788086 36.06076812744141 33.90510940551758 29.55413055419922 46.7259407043457 C 25.45809173583984 54.79685211181641 21.31837272644043 62.00193023681641 20.00000381469727 64.26784515380859 Z"/>
    <path class="cls-5" d="M 20 1 C 17.43615913391113 1 14.94943046569824 1.508380889892578 12.6088695526123 2.511032104492188 C 10.34680938720703 3.480049133300781 8.314859390258789 4.867710113525391 6.569461822509766 6.635452270507812 C 4.82318115234375 8.404090881347656 3.452159881591797 10.46361923217773 2.494461059570312 12.75685119628906 C 1.502811431884766 15.13140106201172 1 17.65449905395508 1 20.25606155395508 C 1 24.67261123657227 4.418918609619141 33.74436950683594 10.88713073730469 46.4906005859375 C 14.60267448425293 53.81242370605469 18.3561897277832 60.42385101318359 20.00001525878906 63.27068328857422 C 21.6429557800293 60.42544555664062 25.39332008361816 53.81966781616211 29.10826873779297 46.49966049194336 C 35.57949066162109 33.74861907958984 39 24.67372894287109 39 20.25606155395508 C 39 17.65449905395508 38.49718856811523 15.13140106201172 37.50553894042969 12.75685119628906 C 36.5478401184082 10.46361923217773 35.17681884765625 8.404090881347656 33.4305419921875 6.635452270507812 C 31.68513870239258 4.867710113525391 29.65319061279297 3.480049133300781 27.3911304473877 2.511032104492188 C 25.05056953430176 1.508380889892578 22.56384086608887 1 20 1 M 20 0 C 31.04568862915039 0 40 9.068939208984375 40 20.25606155395508 C 40 31.44318008422852 20 65.25804138183594 20 65.25804138183594 C 20 65.25804138183594 0 31.44318008422852 0 20.25606155395508 C 0 9.068939208984375 8.954309463500977 0 20 0 Z"/>
  </g>
  <g id="Path_30" data-name="Path 30" class="cls-2" transform="translate(5.849 5.924)">
    <path class="cls-4" d="M 14.150710105896 28.16376304626465 C 10.50568008422852 28.16376304626465 7.078480243682861 26.72579193115234 4.500440120697021 24.1147518157959 C 1.920720100402832 21.50200271606445 0.5000001192092896 18.02771186828613 0.5000001192092896 14.33188247680664 C 0.5000001192092896 10.63605213165283 1.920720100402832 7.161762714385986 4.500440120697021 4.549012660980225 C 7.078480243682861 1.93797242641449 10.50568008422852 0.5000025033950806 14.150710105896 0.5000025033950806 C 17.79574012756348 0.5000025033950806 21.22294044494629 1.93797242641449 23.80097961425781 4.549012660980225 C 26.38069915771484 7.161762714385986 27.80142021179199 10.63605213165283 27.80142021179199 14.33188247680664 C 27.80142021179199 18.02771186828613 26.38069915771484 21.50200271606445 23.80097961425781 24.1147518157959 C 21.22294044494629 26.72579193115234 17.79574012756348 28.16376304626465 14.150710105896 28.16376304626465 Z"/>
    <path class="cls-5" d="M 14.150710105896 1.000001907348633 C 10.64043045043945 1.000001907348633 7.339590072631836 2.385162353515625 4.856239318847656 4.900302886962891 C 2.369499206542969 7.418872833251953 1 10.76841163635254 1 14.33188247680664 C 1 17.89535140991211 2.369499206542969 21.24489212036133 4.856239318847656 23.76346206665039 C 7.339590072631836 26.27860260009766 10.64043045043945 27.66376304626465 14.150710105896 27.66376304626465 C 17.66098976135254 27.66376304626465 20.96183013916016 26.27860260009766 23.4451789855957 23.76346206665039 C 25.93191909790039 21.24489212036133 27.30142021179199 17.89535140991211 27.30142021179199 14.33188247680664 C 27.30142021179199 10.76841163635254 25.93191909790039 7.418872833251953 23.4451789855957 4.900302886962891 C 20.96183013916016 2.385162353515625 17.66098976135254 1.000001907348633 14.150710105896 1.000001907348633 M 14.150710105896 1.9073486328125e-06 C 21.9659309387207 1.9073486328125e-06 28.30142021179199 6.416603088378906 28.30142021179199 14.33188247680664 C 28.30142021179199 22.24716186523438 21.9659309387207 28.66376304626465 14.150710105896 28.66376304626465 C 6.335489273071289 28.66376304626465 0 22.24716186523438 0 14.33188247680664 C 0 6.416603088378906 6.335489273071289 1.9073486328125e-06 14.150710105896 1.9073486328125e-06 Z"/>
  </g>
  <path id="ship-icon" class="cls-3" d="M642.594,602.389s3.463,1.385,8.966-.48c5.653-1.917,9.042.32,9.042.32a16.837,16.837,0,0,0-8.812.6C645.789,605.029,642.594,602.389,642.594,602.389ZM656.052,588.8a.629.629,0,0,1,.617.592l.352,4.574-5.16-2.543a.675.675,0,0,0-.269-.063.644.644,0,0,0-.256.063l-5.16,2.543.352-4.574a.629.629,0,0,1,.617-.592Zm-3.939-5.066v1.934h-1.029v-1.934a.19.19,0,0,1,.052-.131.175.175,0,0,1,.126-.054h.672a.175.175,0,0,1,.126.054A.189.189,0,0,1,652.112,583.737Zm3.368,2.691v1.992h-7.764v-1.992a.446.446,0,0,1,.123-.309.412.412,0,0,1,.3-.128h6.924a.412.412,0,0,1,.3.128A.445.445,0,0,1,655.48,586.427Zm-6.188.338a.452.452,0,1,0,.435.452A.444.444,0,0,0,649.292,586.766Zm3.075,0a.452.452,0,1,0,.435.452A.444.444,0,0,0,652.367,586.766Zm1.537,0a.452.452,0,1,0,.435.452A.444.444,0,0,0,653.9,586.766Zm-3.075,0a.452.452,0,1,0,.435.452A.444.444,0,0,0,650.829,586.766Zm-4.6,15.6-1.772-5.936,7-3.434v8.4l-.1.035A16.84,16.84,0,0,1,646.231,602.365Zm5.5-1.061V593l7,3.434-1.275,4.273A13.506,13.506,0,0,0,651.732,601.3Zm-7.334-5.083-.172-.574a.4.4,0,0,1,.2-.469l7.04-3.47v1.049Zm7.334-3.464v-1.049l7.04,3.47a.4.4,0,0,1,.2.469l-.171.574-7.067-3.464" transform="translate(-631.598 -573.372)"/>
</svg>
